<svg version="1.1" viewBox="0.0 0.0 100.0 50.0" fill="none" stroke="none" stroke-linecap="square" stroke-miterlimit="10" xmlns:xlink="http://www.w3.org/1999/xlink" xmlns="http://www.w3.org/2000/svg"><clipPath id="p.0"><path d="m0 0l100.0 0l0 50.0l-100.0 0l0 -50.0z" clip-rule="nonzero"/></clipPath><g clip-path="url(#p.0)"><path fill="#000000" fill-opacity="0.0" d="m0 0l100.0 0l0 50.0l-100.0 0z" fill-rule="evenodd"/><path fill="#000000" fill-opacity="0.0" d="m5.7440014 3.8976378l90.01575 0l0 3.8425198l-90.01575 0z" fill-rule="evenodd"/><path fill="#ff0000" d="m8.587751 8.062013l-1.171875 0l0 -0.5937495l3.0625 0l0 0.5937495l-1.1875 0l0 3.921875l1.1875 0l0 0.59375l-3.0625 0l0 -0.59375l1.171875 0l0 -3.921875zm10.09375 4.515625l-0.015625 -0.53125q-0.3125 0.3125 -0.640625 0.46875q-0.328125 0.140625 -0.703125 0.140625q-0.328125 0 -0.578125 -0.09375q-0.234375 -0.09375 -0.390625 -0.234375q-0.140625 -0.15625 -0.21875 -0.359375q-0.078125 -0.203125 -0.078125 -0.4375q0 -0.59375 0.4375 -0.921875q0.453125 -0.34375 1.3125 -0.34375l0.8125 0l0 -0.34375q0 -0.34375 -0.234375 -0.546875q-0.21875 -0.21875 -0.671875 -0.21875q-0.328125 0 -0.65625 0.078125q-0.328125 0.078125 -0.671875 0.21875l0 -0.625q0.140625 -0.046875 0.296875 -0.078125q0.15625 -0.046875 0.328125 -0.078125q0.171875 -0.046875 0.359375 -0.0625q0.203125 -0.03125 0.390625 -0.03125q0.359375 0 0.640625 0.078125q0.296875 0.078125 0.484375 0.25q0.203125 0.15625 0.296875 0.40625q0.109375 0.234375 0.109375 0.5625l0 2.703125l-0.609375 0zm-0.0625 -1.78125l-0.875 0q-0.25 0 -0.4375 0.046875q-0.171875 0.046875 -0.296875 0.140625q-0.109375 0.09375 -0.171875 0.234375q-0.0625 0.125 -0.0625 0.28125q0 0.125 0.03125 0.234375q0.046875 0.09375 0.125 0.171875q0.078125 0.078125 0.203125 0.125q0.125 0.046875 0.296875 0.046875q0.234375 0 0.53125 -0.140625q0.3125 -0.140625 0.65625 -0.453125l0 -0.6875zm4.7421875 1.78125l0 -2.8125q0 -0.1875 -0.015625 -0.296875q-0.015625 -0.125 -0.046875 -0.1875q-0.015625 -0.078125 -0.0625 -0.09375q-0.046875 -0.03125 -0.109375 -0.03125q-0.078125 0 -0.15625 0.046875q-0.0625 0.046875 -0.140625 0.15625q-0.078125 0.09375 -0.171875 0.265625q-0.078125 0.171875 -0.203125 0.4375l0 2.515625l-0.625 0l0 -2.75q0 -0.203125 -0.015625 -0.328125q-0.015625 -0.140625 -0.046875 -0.21875q-0.03125 -0.078125 -0.078125 -0.09375q-0.046875 -0.03125 -0.109375 -0.03125q-0.0625 0 -0.125 0.046875q-0.0625 0.03125 -0.140625 0.140625q-0.078125 0.09375 -0.171875 0.265625q-0.09375 0.171875 -0.21875 0.453125l0 2.515625l-0.625 0l0 -3.921875l0.515625 0l0.03125 0.75q0.09375 -0.234375 0.1875 -0.390625q0.109375 -0.15625 0.203125 -0.25q0.109375 -0.09375 0.21875 -0.140625q0.109375 -0.046875 0.25 -0.046875q0.328125 0 0.484375 0.21875q0.171875 0.203125 0.171875 0.640625q0.09375 -0.203125 0.171875 -0.359375q0.09375 -0.171875 0.1875 -0.265625q0.109375 -0.109375 0.234375 -0.171875q0.125 -0.0625 0.296875 -0.0625q0.734375 0 0.734375 1.140625l0 2.859375l-0.625 0zm9.640627 -3.921875l-0.578125 3.921875l-0.8281269 0l-0.5625 -1.640625l-0.109375 -0.40625l-0.125 0.421875l-0.546875 1.625l-0.796875 0l-0.578125 -3.921875l0.671875 0l0.328125 2.65625l0.0625 0.59375l0.171875 -0.515625l0.578125 -1.765625l0.484375 0l0.609375 1.75l0.171875 0.515625l0.06250191 -0.546875l0.3125 -2.6875l0.671875 0zm3.2734375 3.921875l-0.015625 -0.53125q-0.3125 0.3125 -0.640625 0.46875q-0.328125 0.140625 -0.703125 0.140625q-0.328125 0 -0.578125 -0.09375q-0.234375 -0.09375 -0.390625 -0.234375q-0.140625 -0.15625 -0.21875 -0.359375q-0.078125 -0.203125 -0.078125 -0.4375q0 -0.59375 0.4375 -0.921875q0.453125 -0.34375 1.3125 -0.34375l0.8125 0l0 -0.34375q0 -0.34375 -0.234375 -0.546875q-0.21875 -0.21875 -0.671875 -0.21875q-0.328125 0 -0.65625 0.078125q-0.328125 0.078125 -0.671875 0.21875l0 -0.625q0.140625 -0.046875 0.296875 -0.078125q0.15625 -0.046875 0.328125 -0.078125q0.171875 -0.046875 0.359375 -0.0625q0.203125 -0.03125 0.390625 -0.03125q0.359375 0 0.640625 0.078125q0.296875 0.078125 0.484375 0.25q0.203125 0.15625 0.296875 0.40625q0.109375 0.234375 0.109375 0.5625l0 2.703125l-0.609375 0zm-0.0625 -1.78125l-0.875 0q-0.25 0 -0.4375 0.046875q-0.171875 0.046875 -0.296875 0.140625q-0.109375 0.09375 -0.171875 0.234375q-0.0625 0.125 -0.0625 0.28125q0 0.125 0.03125 0.234375q0.046875 0.09375 0.125 0.171875q0.078125 0.078125 0.203125 0.125q0.125 0.046875 0.296875 0.046875q0.234375 0 0.53125 -0.140625q0.3125 -0.140625 0.65625 -0.453125l0 -0.6875zm5.1015625 1.71875q-0.21875 0.0625 -0.46875 0.09375q-0.25 0.03125 -0.5 0.03125q-0.734375 0 -1.109375 -0.328125q-0.359375 -0.34375 -0.359375 -1.046875l0 -2.046875l-1.09375 0l0 -0.5625l1.09375 0l0 -1.0781245l0.6875 -0.171875l0 1.2499995l1.75 0l0 0.5625l-1.75 0l0 2.0q0 0.421875 0.21875 0.640625q0.21875 0.203125 0.65625 0.203125q0.1875 0 0.40625 -0.03125q0.234375 -0.03125 0.46875 -0.09375l0 0.578125zm4.2890625 -0.078125q-0.265625 0.09375 -0.546875 0.140625q-0.28125 0.0625 -0.578125 0.0625q-0.921875 0 -1.421875 -0.5q-0.5 -0.515625 -0.5 -1.484375q0 -0.46875 0.140625 -0.84375q0.140625 -0.375 0.40625 -0.640625q0.265625 -0.28125 0.625 -0.421875q0.359375 -0.15625 0.796875 -0.15625q0.3125 0 0.578125 0.046875q0.265625 0.046875 0.5 0.140625l0 0.65625q-0.25 -0.140625 -0.515625 -0.203125q-0.265625 -0.0625 -0.546875 -0.0625q-0.265625 0 -0.5 0.109375q-0.21875 0.09375 -0.40625 0.28125q-0.171875 0.1875 -0.28125 0.46875q-0.09375 0.265625 -0.09375 0.59375q0 0.71875 0.34375 1.078125q0.34375 0.34375 0.96875 0.34375q0.265625 0 0.53125 -0.0625q0.265625 -0.0625 0.5 -0.1875l0 0.640625zm4.5078125 0.140625l-0.6875 0l0 -2.5q0 -0.453125 -0.171875 -0.671875q-0.15625 -0.234375 -0.484375 -0.234375q-0.125 0 -0.25 0.046875q-0.125 0.03125 -0.25 0.125q-0.125 0.078125 -0.28125 0.234375q-0.15625 0.15625 -0.34375 0.390625l0 2.609375l-0.6875 0l0 -5.5156245l0.6875 0l0 1.5937495l-0.03125 0.609375q0.15625 -0.1875 0.3125 -0.3125q0.15625 -0.140625 0.3125 -0.21875q0.15625 -0.078125 0.3125 -0.109375q0.15625 -0.046875 0.328125 -0.046875q0.59375 0 0.90625 0.359375q0.328125 0.359375 0.328125 1.078125l0 2.5625zm2.5859375 -3.359375l-1.171875 0l0 -0.5625l1.859375 0l0 3.359375l1.15625 0l0 0.5625l-3.140625 0l0 -0.5625l1.296875 0l0 -2.796875zm0.234375 -2.2031245q0.109375 0 0.203125 0.046875q0.109375 0.03125 0.171875 0.109375q0.078125 0.0625 0.109375 0.171875q0.046875 0.09375 0.046875 0.203125q0 0.109375 -0.046875 0.203125q-0.03125 0.09375 -0.109375 0.171875q-0.0625 0.078125 -0.171875 0.12499952q-0.09375 0.03125 -0.203125 0.03125q-0.109375 0 -0.21875 -0.03125q-0.09375 -0.046874523 -0.171875 -0.12499952q-0.0625 -0.078125 -0.109375 -0.171875q-0.03125 -0.09375 -0.03125 -0.203125q0 -0.109375 0.03125 -0.203125q0.046875 -0.109375 0.109375 -0.171875q0.078125 -0.078125 0.171875 -0.109375q0.109375 -0.046875 0.21875 -0.046875zm2.8203125 1.6406245l0.609375 0l0.03125 0.625q0.171875 -0.203125 0.328125 -0.328125q0.15625 -0.140625 0.3125 -0.21875q0.15625 -0.078125 0.3125 -0.109375q0.15625 -0.046875 0.328125 -0.046875q0.609375 0 0.921875 0.359375q0.3125 0.359375 0.3125 1.078125l0 2.5625l-0.6875 0l0 -2.5q0 -0.46875 -0.171875 -0.6875q-0.171875 -0.21875 -0.5 -0.21875q-0.125 0 -0.25 0.046875q-0.125 0.03125 -0.25 0.125q-0.125 0.078125 -0.28125 0.234375q-0.140625 0.15625 -0.328125 0.390625l0 2.609375l-0.6875 0l0 -3.921875zm7.2265625 0.546875q0.109375 0.140625 0.171875 0.328125q0.0625 0.171875 0.0625 0.390625q0 0.296875 -0.125 0.5625q-0.109375 0.25 -0.3125 0.4375q-0.203125 0.171875 -0.484375 0.265625q-0.28125 0.09375 -0.625 0.09375q-0.234375 0 -0.453125 -0.046875q-0.21875 -0.046875 -0.34375 -0.125q-0.078125 0.109375 -0.125 0.203125q-0.046875 0.09375 -0.046875 0.21875q0 0.140625 0.140625 0.25q0.140625 0.09375 0.375 0.09375l1.03125 0.046875q0.296875 0 0.546875 0.078125q0.25 0.0625 0.421875 0.1875q0.171875 0.125 0.265625 0.3125q0.109375 0.1875 0.109375 0.421875q0 0.265625 -0.109375 0.5q-0.109375 0.234375 -0.359375 0.40625q-0.234375 0.1875 -0.59375 0.28125q-0.359375 0.109375 -0.859375 0.109375q-0.484375 0 -0.8125 -0.078125q-0.328125 -0.078125 -0.546875 -0.21875q-0.21875 -0.125 -0.3125 -0.3125q-0.09375 -0.1875 -0.09375 -0.40625q0 -0.28125 0.125 -0.5q0.140625 -0.21875 0.40625 -0.421875q-0.09375 -0.046875 -0.171875 -0.109375q-0.078125 -0.078125 -0.125 -0.15625q-0.046875 -0.078125 -0.078125 -0.171875q-0.015625 -0.09375 -0.015625 -0.1875q0 -0.25 0.125 -0.453125q0.125 -0.21875 0.28125 -0.40625q-0.078125 -0.09375 -0.140625 -0.171875q-0.046875 -0.09375 -0.09375 -0.1875q-0.03125 -0.109375 -0.0625 -0.21875q-0.015625 -0.125 -0.015625 -0.265625q0 -0.3125 0.109375 -0.5625q0.109375 -0.25 0.3125 -0.421875q0.203125 -0.1875 0.484375 -0.28125q0.28125 -0.109375 0.625 -0.109375q0.15625 0 0.28125 0.03125q0.140625 0.015625 0.234375 0.046875l1.421875 0l0 0.546875l-0.625 0zm-2.359375 3.9375q0 0.28125 0.28125 0.40625q0.296875 0.125 0.8125 0.125q0.328125 0 0.546875 -0.0625q0.21875 -0.046875 0.34375 -0.140625q0.140625 -0.09375 0.203125 -0.21875q0.0625 -0.125 0.0625 -0.25q0 -0.25 -0.203125 -0.359375q-0.1875 -0.109375 -0.59375 -0.140625l-1.03125 -0.03125q-0.125 0.09375 -0.21875 0.171875q-0.078125 0.078125 -0.125 0.15625q-0.046875 0.09375 -0.0625 0.171875q-0.015625 0.09375 -0.015625 0.171875zm0.203125 -3.203125q0 0.1875 0.0625 0.34375q0.0625 0.15625 0.171875 0.265625q0.125 0.109375 0.265625 0.171875q0.15625 0.0625 0.34375 0.0625q0.203125 0 0.359375 -0.0625q0.171875 -0.078125 0.265625 -0.1875q0.109375 -0.125 0.171875 -0.28125q0.0625 -0.15625 0.0625 -0.3125q0 -0.1875 -0.0625 -0.34375q-0.0625 -0.15625 -0.1875 -0.265625q-0.109375 -0.109375 -0.265625 -0.171875q-0.15625 -0.0625 -0.34375 -0.0625q-0.203125 0 -0.359375 0.078125q-0.15625 0.0625 -0.265625 0.1875q-0.109375 0.109375 -0.171875 0.265625q-0.046875 0.140625 -0.046875 0.3125zm11.609375 -1.28125l-1.328125 3.5q-0.203125 0.546875 -0.4375 0.921875q-0.21875 0.390625 -0.484375 0.640625q-0.25 0.25 -0.5625 0.359375q-0.3125 0.125 -0.703125 0.125q-0.09375 0 -0.1875 0q-0.078125 0 -0.171875 -0.015625l0 -0.609375q0.078125 0 0.171875 0.015625q0.109375 0.015625 0.234375 0.015625q0.1875 0 0.34375 -0.0625q0.15625 -0.046875 0.296875 -0.171875q0.15625 -0.125 0.28125 -0.328125q0.140625 -0.1875 0.265625 -0.46875l-1.5625 -3.921875l0.765625 0l1.0 2.59375l0.1875 0.609375l0.234375 -0.625l0.921875 -2.578125l0.734375 0zm4.3359375 1.921875q0 0.46875 -0.140625 0.84375q-0.125 0.375 -0.375 0.65625q-0.234375 0.265625 -0.578125 0.421875q-0.34375 0.15625 -0.796875 0.15625q-0.421875 0 -0.75 -0.125q-0.328125 -0.140625 -0.5625 -0.390625q-0.234375 -0.265625 -0.359375 -0.640625q-0.125 -0.375 -0.125 -0.859375q0 -0.453125 0.125 -0.828125q0.140625 -0.390625 0.375 -0.65625q0.25 -0.265625 0.59375 -0.421875q0.34375 -0.15625 0.78125 -0.15625q0.421875 0 0.75 0.140625q0.34375 0.125 0.578125 0.375q0.234375 0.25 0.359375 0.625q0.125 0.375 0.125 0.859375zm-0.703125 0.03125q0 -0.359375 -0.078125 -0.625q-0.078125 -0.28125 -0.234375 -0.453125q-0.140625 -0.1875 -0.359375 -0.28125q-0.203125 -0.09375 -0.46875 -0.09375q-0.3125 0 -0.53125 0.125q-0.203125 0.125 -0.34375 0.328125q-0.140625 0.1875 -0.203125 0.453125q-0.0625 0.265625 -0.0625 0.546875q0 0.375 0.078125 0.65625q0.078125 0.265625 0.21875 0.453125q0.15625 0.171875 0.359375 0.265625q0.21875 0.09375 0.484375 0.09375q0.296875 0 0.515625 -0.125q0.21875 -0.125 0.359375 -0.3125q0.140625 -0.203125 0.203125 -0.46875q0.0625 -0.265625 0.0625 -0.5625zm4.8359375 1.96875l-0.609375 0l-0.03125 -0.640625q-0.171875 0.203125 -0.328125 0.34375q-0.15625 0.140625 -0.3125 0.21875q-0.15625 0.078125 -0.3125 0.109375q-0.15625 0.046875 -0.34375 0.046875q-0.59375 0 -0.90625 -0.359375q-0.3125 -0.359375 -0.3125 -1.078125l0 -2.5625l0.6875 0l0 2.5q0 0.90625 0.671875 0.90625q0.125 0 0.234375 -0.03125q0.125 -0.046875 0.25 -0.125q0.140625 -0.09375 0.28125 -0.25q0.15625 -0.15625 0.34375 -0.40625l0 -2.59375l0.6875 0l0 3.921875z" fill-rule="nonzero"/><path fill="#ff0000" d="m82.45494 12.577638l0 -0.796875l0.796875 0l0 0.796875l-0.796875 0zm2.671875 0l0 -0.796875l0.796875 0l0 0.796875l-0.796875 0zm2.65625 0l0 -0.796875l0.8125 0l0 0.796875l-0.8125 0z" fill-rule="nonzero"/></g></svg>